<svg xmlns="http://www.w3.org/2000/svg" width="200" height="52" viewBox="0 0 200 52">
  <path fill="#FFF" d="M28.2308165,9.84529658 C27.6355195,9.75371243 27.1432547,9.47895997 26.754022,9.02103919 C26.3647894,8.56311842 26.1701731,8.03650953 26.1701731,7.44121253 L26.1701731,2.42698007 C26.1701731,1.64851476 26.4449255,1.03032172 26.9944304,0.572400944 C27.5439354,0.114480171 28.1850245,-0.0686881377 28.9176977,0.0228960168 C32.8558163,0.663985098 36.3589102,2.06064345 39.4269794,4.21287108 C43.4108901,7.09777195 46.2271029,10.9214104 47.8756177,15.6837864 C48.1503701,16.4622517 48.058786,17.194925 47.6008652,17.8818061 C47.1429444,18.5686873 46.4789593,18.9121279 45.6089098,18.9121279 L40.1138606,18.9121279 C39.6101477,18.9121279 39.152227,18.7861997 38.7400983,18.5343432 C38.3279696,18.2824868 38.0303211,17.9275982 37.8471528,17.4696774 C36.8397271,15.0884894 35.3056925,13.1881182 33.245049,11.7685638 C31.6423263,10.7611381 29.9709155,10.120049 28.2308165,9.84529658 L28.2308165,9.84529658 Z M45.6089098,32.649751 C46.4789593,32.649751 47.1429444,32.9931916 47.6008652,33.6800728 C48.058786,34.3669539 48.1503701,35.0996272 47.8756177,35.8780925 C46.2271029,40.6404685 43.4108901,44.464107 39.4269794,47.3490078 C36.3589102,49.5012355 32.8558163,50.8978938 28.9176977,51.5389829 L28.5742571,51.5389829 C27.933168,51.5389829 27.4065591,51.3329186 26.9944304,50.9207899 C26.4449255,50.5086612 26.1701731,49.9133642 26.1701731,49.1348989 L26.1701731,44.1206664 C26.1701731,43.5253694 26.3533414,42.9987605 26.719678,42.5408397 C27.0860146,42.082919 27.5668314,41.8081665 28.1621284,41.7165823 C30.0853957,41.4418299 31.7797025,40.8007408 33.245049,39.7933151 C35.3056925,38.3737607 36.8397271,36.4733895 37.8471528,34.0922015 C38.0303211,33.6342807 38.3279696,33.2793921 38.7400983,33.0275357 C39.152227,32.7756793 39.6101477,32.649751 40.1138606,32.649751 L45.6089098,32.649751 L45.6089098,32.649751 Z M21.0185644,0.847153407 C21.6138614,1.30507418 21.9115099,1.92326722 21.9115099,2.70173254 L21.9115099,8.05940557 C21.9115099,8.56311842 21.7397896,9.03248721 21.396349,9.46751195 C21.0529084,9.90253668 20.6293317,10.2116332 20.1256189,10.3948015 C19.4845298,10.5321777 18.9808169,10.69245 18.6144803,10.8756183 C16.7827972,11.6998757 15.2258666,12.8217816 13.9436884,14.241336 C11.33354,17.1720289 10.0284658,21.0071154 10.0284658,25.7465954 C10.0284658,30.4860754 11.33354,34.3440579 13.9436884,37.3205429 C15.5464111,39.152226 17.6070546,40.4344042 20.1256189,41.1670774 C20.6293317,41.3044536 21.0529084,41.5906541 21.396349,42.0256789 C21.7397896,42.4607036 21.9115099,42.9300724 21.9115099,43.4337852 L21.9115099,48.8601464 C21.9115099,49.6386117 21.6138614,50.2568047 21.0185644,50.7147255 C20.6064357,51.0810621 20.0798268,51.2642304 19.4387377,51.2642304 L18.9579209,51.2642304 C14.0581686,50.2110127 9.91398564,47.8298247 6.52537192,44.1206664 C2.17512459,39.2209141 9.17085281e-07,33.1076718 9.17085281e-07,25.7809395 C9.17085281e-07,18.4542071 2.17512459,12.3409648 6.52537192,7.44121253 C9.91398564,3.6862622 14.0581686,1.32797022 18.9579209,0.366336596 C19.6905941,0.183168287 20.3774753,0.343440557 21.0185644,0.847153407 L21.0185644,0.847153407 Z M63.3991319,0.0228960168 C64.0402209,0.0228960168 64.6011739,0.263304422 65.0819907,0.744121233 C65.5628075,1.22493804 65.8032159,1.78589099 65.8032159,2.42698007 L65.8032159,48.4480177 C65.8032159,49.0891068 65.5628075,49.6500597 65.0819907,50.1308765 C64.6011739,50.6116933 64.0402209,50.8521018 63.3991319,50.8521018 L58.178835,50.8521018 C57.537746,50.8521018 56.976793,50.6116933 56.4959762,50.1308765 C56.0151594,49.6500597 55.774751,49.0891068 55.774751,48.4480177 L55.774751,2.42698007 C55.774751,1.78589099 56.0151594,1.22493804 56.4959762,0.744121233 C56.976793,0.263304422 57.537746,0.0228960168 58.178835,0.0228960168 L63.3991319,0.0228960168 Z M88.4702941,41.0297012 C89.1571753,41.0297012 89.7295763,41.2701096 90.187497,41.7509264 C90.6454178,42.2317432 90.8743782,42.7926962 90.8743782,43.4337852 L90.8743782,48.4480177 C90.8743782,49.0891068 90.6454178,49.6500597 90.187497,50.1308765 C89.7295763,50.6116933 89.1571753,50.8521018 88.4702941,50.8521018 L72.4659631,50.8521018 C71.779082,50.8521018 71.206681,50.6116933 70.7487603,50.1308765 C70.2908395,49.6500597 70.0618791,49.0891068 70.0618791,48.4480177 L70.0618791,43.4337852 C70.0618791,42.7926962 70.2908395,42.2317432 70.7487603,41.7509264 C71.206681,41.2701096 71.779082,41.0297012 72.4659631,41.0297012 L88.4702941,41.0297012 Z M117.456679,0.572400944 C118.006184,1.03032172 118.280936,1.64851476 118.280936,2.42698007 L118.280936,7.57858876 C118.280936,8.17388577 118.109216,8.68904663 117.765776,9.12407137 C117.422335,9.5590961 116.952966,9.84529658 116.357669,9.98267282 C113.426976,10.5779698 110.931308,11.9746282 108.870665,14.1726479 C106.077348,17.1033408 104.680689,20.9155313 104.680689,25.6092192 C104.680689,30.3029071 106.077348,34.1379936 108.870665,37.1144786 C110.931308,39.2667062 113.426976,40.6404685 116.357669,41.2357655 C116.952966,41.3731418 117.422335,41.6593422 117.765776,42.094367 C118.109216,42.5293917 118.280936,43.0445526 118.280936,43.6398496 L118.280936,48.7914583 C118.280936,49.5241315 118.006184,50.1423246 117.456679,50.6460374 C116.952966,51.012374 116.426357,51.1955423 115.876852,51.1955423 L115.464724,51.1955423 C110.152843,50.3254929 105.596531,47.9214088 101.795789,43.9832902 C97.0334126,39.0835379 94.6522246,32.9817436 94.6522246,25.6779073 C94.6522246,18.374071 97.0334126,12.2264846 101.795789,7.23514818 C105.504947,3.38861369 110.061259,1.00742568 115.464724,0.0915841326 C116.197397,-0.0457920991 116.861382,0.114480171 117.456679,0.572400944 L117.456679,0.572400944 Z M139.024747,7.23514818 C143.787123,12.2264846 146.168311,18.374071 146.168311,25.6779073 C146.168311,32.9817436 143.787123,39.0835379 139.024747,43.9832902 C135.224005,47.9214088 130.667693,50.3254929 125.355812,51.1955423 L124.943684,51.1955423 C124.394179,51.1955423 123.86757,51.012374 123.363857,50.6460374 C122.814352,50.1423246 122.5396,49.5241315 122.5396,48.7914583 L122.5396,43.6398496 C122.5396,43.0445526 122.71132,42.5293917 123.05476,42.094367 C123.398201,41.6593422 123.86757,41.3731418 124.462867,41.2357655 C127.39356,40.6404685 129.889228,39.2667062 131.949871,37.1144786 C134.743188,34.1379936 136.139847,30.3029071 136.139847,25.6092192 C136.139847,20.9155313 134.743188,17.1033408 131.949871,14.1726479 C129.889228,11.9746282 127.39356,10.5779698 124.462867,9.98267282 C123.86757,9.84529658 123.398201,9.5590961 123.05476,9.12407137 C122.71132,8.68904663 122.5396,8.17388577 122.5396,7.57858876 L122.5396,2.42698007 C122.5396,1.64851476 122.8258,1.03032172 123.398201,0.572400944 C123.970602,0.114480171 124.623139,-0.0457920991 125.355812,0.0915841326 C130.759277,1.00742568 135.315589,3.38861369 139.024747,7.23514818 Z M199.607666,47.6237603 C199.92821,48.3564335 199.848074,49.1005548 199.367257,49.8561241 C198.88644,50.6116933 198.233903,50.989478 197.409646,50.989478 L151.663361,50.989478 C151.251232,50.989478 150.861999,50.8864458 150.495663,50.6803815 C150.129326,50.4743171 149.854574,50.2110127 149.671405,49.8904681 C149.167693,49.1577949 149.099004,48.4022256 149.465341,47.6237603 L151.594673,42.6095278 C151.777841,42.1516071 152.075489,41.7852705 152.487618,41.510518 C152.899747,41.2357655 153.334772,41.0983893 153.792692,41.0983893 L185.801354,41.0983893 L174.536503,14.1726479 L165.332296,36.152845 C165.149127,36.6107657 164.862927,36.9656543 164.473694,37.2175108 C164.084462,37.4693672 163.637989,37.5952954 163.134276,37.5952954 L157.364474,37.5952954 C156.494425,37.5952954 155.807544,37.2289588 155.303831,36.4962855 C155.120663,36.175741 155.006182,35.8094044 154.96039,35.3972757 C154.914598,34.985147 154.96039,34.5959143 155.097767,34.2295777 L169.041454,1.53403457 C169.224622,1.07611379 169.510823,0.709777175 169.900055,0.435024712 C170.289288,0.160272248 170.735761,0.0228960168 171.239474,0.0228960168 L177.833533,0.0228960168 C178.337246,0.0228960168 178.783718,0.160272248 179.172951,0.435024712 C179.562184,0.709777175 179.848384,1.07611379 180.031553,1.53403457 L199.607666,47.6237603 Z"/>
</svg>
